<svg xmlns="http://www.w3.org/2000/svg" xml:space="preserve" width="1500" height="1500" data-id="lg_91r88eSqfCRXPYE4b5" data-version="1" viewBox="0 0 1500 1500"><path fill="#fff" stroke="transparent" d="M0 0h1500v1500H0z"/><g data-padding="20"><g transform="translate(-571.429 -571.429)scale(1.72194)"><path fill="#fbdfff" d="M853.7 734.665c4.283-11.322 4.283-20.502.611-27.54-6.12-11.322-21.726-14.688-30.6-15.606-3.978-.306-7.956 0-11.628 1.224l-125.766 62.424c-.306.306-.918.306-1.224.306q-1.836 0-2.754-1.836c-.612-1.53 0-3.366 1.53-3.978l126.072-62.424s.306 0 .306-.306c4.59-1.53 9.486-2.142 14.382-1.53 3.978.306 9.486 1.224 14.994 3.06l.306-.306 49.878-23.562c-20.502-12.24-46.512-15.912-65.484-16.524a97 97 0 0 0-34.884 4.59l-185.436 77.418v48.96l65.79 30.294 146.268-83.538h.306c.612-.306 16.218-5.814 27.846-.306 4.284 1.836 7.344 5.202 9.486 9.18m-175.338 67.932c0 1.836-1.224 3.06-3.06 3.06s-3.06-1.224-3.06-3.06v-44.37L616.55 735.89c-1.53-.612-2.448-2.448-1.836-3.978s2.448-2.448 3.978-1.836l57.834 23.256q1.836.918 1.836 2.754Zm237.15-27.846c.306-.306.306-.612.612-.918v.918Zm-112.608 67.32h.918c-.306 0-.612.306-.918.306s-.612 0-.918-.306Zm91.8-173.502c-.306.306-.612.612-1.224.918l-47.124 22.338c5.202 2.754 10.098 6.732 12.852 12.24 5.814 10.71 4.284 24.786-4.284 41.922-.612 1.224-1.836 1.836-2.754 1.53-5.508 7.956-20.502 19.89-56.304 39.168-25.092 13.77-50.796 26.01-59.058 29.682l-2.142 45.594 61.506 31.824 7.038-6.732h-.306c-1.836 0-3.06-1.224-3.06-3.06v-38.862c0-1.53.918-2.448 2.142-3.06h-.306l-52.632-20.502c-1.53-.612-2.448-2.448-1.836-3.978s2.448-2.448 3.978-1.836l51.102 19.89c11.628-7.65 94.86-63.954 108.324-89.046.918-1.53 2.754-2.142 4.284-1.224s2.142 2.754 1.53 4.284c-15.3 28.152-107.712 89.352-111.69 92.106-.306.306-.612.306-.918.306 1.224.306 2.142 1.224 2.142 3.06V884.3l100.062-96.084c3.978-3.978 7.038-8.262 9.486-13.464l-2.448.306-1.53-16.83 3.06-.306 1.53 15.912c2.754-5.814 4.284-12.546 4.284-18.972l.306-39.78c-1.53-21.42-11.934-36.414-26.01-46.512m-102.51 175.032c.918 0 1.53.612 1.53 1.53l2.142 43.452c0 .918-.612 1.53-1.53 1.53s-1.53-.612-1.53-1.53l-2.142-43.452c0-.918.612-1.53 1.53-1.53m-9.486-1.224c0-.918.612-1.53 1.53-1.53s1.53.612 1.53 1.53v38.25c0 .918-.612 1.53-1.53 1.53s-1.53-.612-1.53-1.53Zm-12.24-3.672c0-.918.612-1.53 1.53-1.53s1.53.918 1.53 1.53l-2.142 35.802c0 .918-.612 1.53-1.53 1.53s-1.53-.918-1.53-1.53Zm-14.994 31.212 4.59-35.19c0-.918.918-1.53 1.836-1.224.918 0 1.53.918 1.224 1.836l-4.59 35.19c0 .918-.612 1.224-1.53 1.224h-.306c-.918 0-1.53-.918-1.224-1.836m-7.038-5.202c1.836-11.628 3.978-29.07 3.672-31.212-.306-.612 0-1.53.612-1.836.612-.612 1.53-.306 2.142.306.306.918 1.224 2.142-3.366 33.354 0 .612-.612 1.224-1.53 1.224h-.306c-.918 0-1.53-.918-1.224-1.836m-5.508-4.896c0 .918-.612 1.53-1.53 1.53s-1.53-.918-1.53-1.53l3.06-32.742c0-.918.918-1.53 1.53-1.53.918 0 1.53.918 1.53 1.53Zm70.686 8.874c-.306-9.792-.612-26.01-.918-27.54l3.06-.918c.612 1.53.918 20.502 1.224 28.458Zm7.65-9.18-.612-28.458h3.06l.612 28.458Zm10.71-8.568-1.836-21.726 3.06-.306 2.142 22.032Zm7.65-5.508c-.306-2.448-1.53-22.644-1.53-24.174h3.06c0 1.224.918 14.994 1.53 23.868Zm9.18-9.18h-3.06v-20.502h3.06Zm5.814-4.59c-.306-2.142-1.53-20.502-1.53-22.032h3.06c0 1.224.918 13.77 1.53 21.726Zm9.486-8.568-1.53-18.972 3.06-.306 1.53 18.972Zm8.262-7.65-2.142-20.502 3.06-.306 2.142 20.502Zm9.792-11.322-2.448-14.688 3.06-.612 2.448 14.688Zm5.508-4.284-.612-16.83h3.06l.612 16.83Zm11.322-10.098h-3.06v-15.912h3.06Zm5.508-6.426-1.53-16.218 3.06-.306 1.53 16.218Zm-25.092-105.876 20.502-.612c.918 0 1.53.612 1.53 1.53s-.612 1.53-1.53 1.53l-20.502.612c-.918 0-1.53-.612-1.53-1.53 0-.612.918-1.53 1.53-1.53m-74.97 152.388c-.306.612-.918.918-1.53.918h-.612c-17.442-6.12-44.064-15.3-46.206-15.606-.918 0-1.53-.918-1.224-1.836.306-.612 1.224-1.224 2.142-1.224 3.06.612 42.228 14.382 46.512 15.912.918.306 1.224 1.224.918 1.836m10.098-7.038c-.306.612-.918.918-1.53.918h-.612l-46.818-14.688c-.612-.306-.918-1.224-.612-1.836.306-.918 1.224-1.224 1.836-.918l46.818 14.688c.918.306 1.224 1.224.918 1.836m15.912-11.934c0 .918-.612 1.224-1.53 1.224h-.306c-54.468-7.344-54.468-8.568-54.468-10.098.306-.918.918-1.53 1.836-1.53.306 0 .918.306.918.306 3.366 1.224 33.66 5.814 52.326 8.262.918 0 1.53.918 1.224 1.836m17.136-8.874-59.058-5.508c-.918 0-1.53-.918-1.53-1.53-.306-1.224.612-1.836 1.53-1.53l59.058 5.508c.918 0 1.53.918 1.53 1.53 0 .918-.612 1.53-1.53 1.53m9.792-7.65-54.162-3.978c-.918 0-1.53-.918-1.53-1.53 0-1.224.612-1.836 1.53-1.53l54.162 3.978c.918 0 1.53.918 1.53 1.53 0 .918-.612 1.53-1.53 1.53m9.792-9.18-51.408-3.06c-.918 0-1.53-.918-1.53-1.53s.918-1.53 1.53-1.53l51.408 3.06c.918 0 1.53.918 1.53 1.53 0 .918-.612 1.53-1.53 1.53m11.016-9.18-48.042-3.06c-.918 0-1.53-.918-1.53-1.53s.612-1.53 1.53-1.53l48.042 3.06c.918 0 1.53.918 1.53 1.53 0 .918-.612 1.53-1.53 1.53m10.71-10.71-44.37-2.142c-.918 0-1.53-.612-1.53-1.53s.612-1.53 1.53-1.53l44.37 2.142c.918 0 1.53.612 1.53 1.53s-.612 1.53-1.53 1.53m10.098-9.18-44.37-1.53c-.918 0-1.53-.612-1.53-1.53s.612-1.53 1.53-1.53l44.37 1.53c.918 0 1.53.612 1.53 1.53s-.612 1.53-1.53 1.53m7.956-11.628-47.43-.612c-.918 0-1.53-.612-1.53-1.53s.918-1.53 1.53-1.53l47.43.612c.918 0 1.53.612 1.53 1.53s-.612 1.53-1.53 1.53m7.65-9.486-51.408.612c-.918 0-1.53-.612-1.53-1.53 0-.612.612-1.53 1.53-1.53l51.408-.612c.918 0 1.53.612 1.53 1.53s-.612 1.53-1.53 1.53m1.53-12.546c0 .918-.612 1.53-1.53 1.53l-49.572.918c-.918 0-1.53-.612-1.53-1.53s.612-1.53 1.53-1.53l49.572-.918c.918 0 1.53.612 1.53 1.53m-3.06-8.874-45.288 1.53c-.918 0-1.53-.612-1.53-1.53s.612-1.53 1.53-1.53l45.288-1.53c.918 0 1.53.918 1.53 1.53 0 .918-.612 1.53-1.53 1.53m1.224-12.24c0 .918-.612 1.53-1.53 1.53l-49.878 2.142c-.918 0-1.53-.612-1.53-1.53s.612-1.53 1.53-1.53l49.878-2.142c.612 0 1.53.918 1.53 1.53m-7.344-8.568c0 .918-.612 1.53-1.53 1.53l-47.736 2.142c-.918 0-1.53-.612-1.53-1.53s.612-1.53 1.53-1.53l48.042-2.142c.612 0 1.224.612 1.224 1.53m-4.284-7.038c-.306.612-.918 1.53-1.53 1.53l-36.72 1.53c-.918 0-1.53-.612-1.53-1.53s.612-1.53 1.53-1.53l36.72-1.53c.918 0 1.53.612 1.53 1.53M767.407 487.417c-154.53 0-279.99 125.46-279.99 279.99s125.46 279.99 279.99 279.99 279.99-125.46 279.99-279.99c0-154.836-125.46-279.99-279.99-279.99M930.505 716l-.612 39.78c0 14.994-6.426 29.376-17.136 39.78L798.313 905.72l-72.828-37.638 2.754-57.222 2.448-1.224c63.036-28.764 115.974-60.588 115.362-69.462q-1.377-4.59-5.508-6.426c-6.426-3.06-16.83-.918-20.502.612l-149.634 85.374-75.276-34.884v-60.894l191.25-79.866c12.546-3.978 25.398-5.508 38.25-4.896 87.822 3.978 104.04 49.572 105.876 76.5Z"/><rect width="122.378" height="250.86" x="426.218" y="361.977" fill="none" rx="0" ry="0" transform="translate(279.87 279.83)"/><path fill="#d230ba" stroke="#fff" stroke-width="1.97" d="M758.547 811.707h18.65q4.89-5.33 7-10.77 2.1-5.44 2.1-16.09v-102.79h30.42v91.69q0 11.32-.56 17.64-.55 6.33-2.77 15.43-3.78 16.21-20.87 30.64h-49.28q-17.1-13.99-20.87-30.64-3.33-13.54-3.33-33.07v-91.69h30.41v102.79q0 10.65 2.11 16.09t6.99 10.77Z"/></g><path fill="transparent" stroke="transparent" stroke-width="1.786" d="M250 250h1000v1000H250z"/></g></svg>